<?xml version="1.0" encoding="UTF-8"?><svg id="Layer_1" xmlns="http://www.w3.org/2000/svg" viewBox="0 0 781.6 781.6"><defs><style>.cls-1{fill:#2e2f31;}.cls-2{fill:none;stroke:#2e2f31;stroke-linecap:round;stroke-miterlimit:10;stroke-width:4.7px;}</style></defs><g><path class="cls-1" d="m620.9,77.9c96,70.7,158.3,184.5,158.3,312.9s-62.3,242.2-158.3,312.9V77.9Z"/><path class="cls-1" d="m160.7,77.9v625.8C64.7,633,2.4,519.2,2.4,390.8S64.7,148.6,160.7,77.9Z"/></g><g><path class="cls-2" d="m160.7,703.7C64.7,633,2.4,519.2,2.4,390.8S64.7,148.6,160.7,77.9"/><path class="cls-2" d="m620.9,77.9c96,70.7,158.3,184.5,158.3,312.9s-62.3,242.2-158.3,312.9"/><line class="cls-2" x1="160.7" y1="703.7" x2="160.7" y2="77.9"/><line class="cls-2" x1="390.8" y1="779.2" x2="390.8" y2="2.4"/><line class="cls-2" x1="620.9" y1="703.7" x2="620.9" y2="77.9"/></g></svg>